<?xml version="1.0" encoding="UTF-8"?>
<svg id="Layer_1" xmlns="http://www.w3.org/2000/svg" xmlns:xlink="http://www.w3.org/1999/xlink" version="1.1" viewBox="0 0 1855 577">
  <!-- Generator: Adobe Illustrator 30.0.0, SVG Export Plug-In . SVG Version: 2.1.1 Build 123)  -->
  <defs>
    <linearGradient id="linear-gradient" x1="1522.31" y1="220.1" x2="1832.86" y2="220.1" gradientUnits="userSpaceOnUse">
      <stop offset="0" stop-color="#fdc782"/>
      <stop offset="1" stop-color="#fb910e"/>
    </linearGradient>
    <linearGradient id="linear-gradient1" x1="499.83" y1="233.01" x2="811.78" y2="233.01" gradientUnits="userSpaceOnUse">
      <stop offset="0" stop-color="#fb900e"/>
      <stop offset="1" stop-color="#fdc782"/>
    </linearGradient>
  </defs>
  <path d="M347,79.99l-215.93,121.58c-6.05,5-9.27,24.15-10.75,32.25-4.32,23.59-5.11,46.85-6.36,70.64l.04,167.54-88.01-50.48-1.04-2.96.56-262.55L251.76,24.15l95.24,55.83Z" style="fill: #0d7140;"/>
  <path d="M1136.71,246.61l2.11-2.33-2.54-.62c-12.87-94.56,53.12-181.74,147.63-195.02,94.51-13.28,181.97,52.34,195.65,146.79s-51.55,182.19-145.94,196.28c-94.39,14.09-182.41-50.77-196.91-145.1ZM1262.35,154.04c-42.71,41.56-33.03,140.54,33.9,150.3,102.41,14.94,107.14-157.26,26.16-167.16-22.3-2.73-43.61.86-60.06,16.86Z" style="fill: #fdc782;"/>
  <path d="M481,317v102.5l-227.74,134.33c-2.45.37-9.23-4.16-11.93-5.66-25.81-14.26-50.7-30.82-75.83-46.17-.7-20.48,1.3-43.39,6.79-63.22,8.01-28.94,19.33-38.29,45.19-17.75,12,9.53,27.38,30.92,44.56,26.5,9.67-2.49,32.83-22.66,42.65-29.35,7.2-4.9,14.57-9.47,22.02-13.98,46.25-28.05,97.91-58.1,145.63-83.37,2.68-1.42,5.71-3.25,8.67-3.83Z" style="fill: #085333;"/>
  <path d="M1827.33,353.76c-1.23,4.28-36.85,20.52-43.1,22.9-129.56,49.18-271.77-19.94-261.38-169.88,10.22-147.45,187.54-203.24,297.48-120.51,3.03,2.28,14.15,9.75,12.34,13.24l-61.66,69.07-3.44-.35c-29.86-41.2-96.07-45.4-126.88-2.61-29.24,40.61-21.7,114.26,28.58,134.71,27.09,11.01,49.8,4.71,77.06-1.31v-37.5h-54v-69h135v161.25Z" style="fill: url(#linear-gradient);"/>
  <path d="M499.83,53.01l311.95,1.55-19.45,80.95h-193.5l1.5,55.5h181.5l-28.5,82.5h-152.25l-2.25,2.25v73.5c-27.2,18.81-54.49,37.98-82.63,55.37-4.98,3.08-10.79,7.69-16.37,8.38V53.01Z" style="fill: url(#linear-gradient1);"/>
  <path d="M467,149c-33.33,21.79-63.97,47.41-97.48,69.02-27.53,17.75-57.67,32.42-84.83,50.17-6.24,4.08-14.82,9.84-19.71,15.29-17.21,19.12-5.39,32.49-2.11,53.16.98,6.19,1.39,12.75,2.02,19,.17,1.64.82,4.33-.89,5.37-23.51-4.4-47.8-9.66-69.68-19.82-7.16-3.33-14.07-5.26-17.09-12.91-4.76-12.04-8.79-53.65-4.72-65.26,1.4-3.99,4.49-6.73,7.58-9.42l223.91-139.17c2.32-.48,6.34,2.21,8.68,3.41,18.5,9.44,36.37,21.16,54.33,31.17Z" style="fill: #0d7140;"/>
  <polygon points="955.83 54.51 955.83 303.51 1125.33 303.51 1100.58 384.51 855.33 384.51 855.33 54.51 955.83 54.51" style="fill: #fdc782;"/>
  <path d="M264,361c1.71-1.03,1.06-3.73.89-5.37-.63-6.25-1.04-12.81-2.02-19-3.28-20.67-15.1-34.04,2.11-53.16,4.9-5.44,13.47-11.21,19.71-15.29,27.16-17.75,57.3-32.42,84.83-50.17,33.51-21.61,64.15-47.23,97.48-69.02.51.28,2.43.06,3.69.77,2.85,1.6,9.71,4.7,10.29,7.76l-.91,94.05c-15.82,12.28-29.78,27.18-45.6,39.4-1.54,1.19-7,5.6-8.22,5.86-5.54,1.14-26.99-18.37-35.84-18.77-4.29-.2-8.44,3.84-11.9,5.96l-93.15,78.86c-4.61,2.38-13.25.57-18.5-.3-1.29-.21-2.45-1.5-2.88-1.58Z" style="fill: #085332;"/>
  <path d="M232.59,785.06c-.1-.66-.2-1.31-.29-1.97l1.69.42-1.41,1.55Z" style="fill: #b2b3a5;"/>
</svg>