<svg xmlns="http://www.w3.org/2000/svg" viewBox="0 0 800 800" width="800" height="800">
  <!-- Dark background -->
  <rect width="800" height="800" fill="#0a1419"/>
  
  <!-- Blue wave (left) -->
  <path d="M 320 220 Q 280 260 280 320 Q 280 380 320 420 Q 360 460 420 480 Q 380 500 360 540 Q 340 580 360 620 Q 280 600 240 540 Q 200 480 200 400 Q 200 320 240 260 Q 280 200 360 180 Q 400 200 420 220 Q 380 200 320 220 Z" fill="#1a7fa0"/>
  
  <path d="M 360 200 Q 300 240 300 320 Q 300 380 340 440 Q 380 480 440 500 Q 400 520 380 560 Q 360 600 380 640 Q 320 620 280 570 Q 240 520 240 440 Q 240 360 280 300 Q 320 240 380 220 Q 420 240 440 260 Q 400 220 360 200 Z" fill="#2ba5c8"/>
  
  <path d="M 400 240 Q 360 280 360 340 Q 360 390 390 430 Q 420 470 460 490 Q 440 510 430 540 Q 420 570 430 600 Q 390 590 360 560 Q 330 530 330 480 Q 330 420 360 380 Q 390 340 430 320 Q 460 330 480 350 Q 450 290 400 240 Z" fill="#45c0e8"/>
  
  <!-- Orange wave (right) -->
  <path d="M 480 220 Q 520 260 520 320 Q 520 380 480 420 Q 440 460 380 480 Q 420 500 440 540 Q 460 580 440 620 Q 520 600 560 540 Q 600 480 600 400 Q 600 320 560 260 Q 520 200 440 180 Q 400 200 380 220 Q 420 200 480 220 Z" fill="#d97d1e"/>
  
  <path d="M 440 200 Q 500 240 500 320 Q 500 380 460 440 Q 420 480 360 500 Q 400 520 420 560 Q 440 600 420 640 Q 480 620 520 570 Q 560 520 560 440 Q 560 360 520 300 Q 480 240 420 220 Q 380 240 360 260 Q 400 220 440 200 Z" fill="#f59527"/>
  
  <path d="M 400 240 Q 440 280 440 340 Q 440 390 410 430 Q 380 470 340 490 Q 360 510 370 540 Q 380 570 370 600 Q 410 590 440 560 Q 470 530 470 480 Q 470 420 440 380 Q 410 340 370 320 Q 340 330 320 350 Q 350 290 400 240 Z" fill="#ff9e30"/>
  
  <path d="M 420 260 Q 460 300 460 360 Q 460 410 430 450 Q 400 490 360 510 Q 380 530 390 560 Q 400 590 390 620 Q 430 610 460 580 Q 490 550 490 500 Q 490 440 460 400 Q 430 360 390 340 Q 360 350 340 370 Q 370 310 420 260 Z" fill="#ffb347"/>
  
  <!-- Text: FLOG -->
  <text x="400" y="590" font-family="Arial, sans-serif" font-size="140" font-weight="900" fill="white" text-anchor="middle" letter-spacing="8">FLOG</text>
</svg>