<?xml version="1.0" encoding="UTF-8"?>
<svg id="Layer_1" xmlns="http://www.w3.org/2000/svg" xmlns:xlink="http://www.w3.org/1999/xlink" version="1.1" viewBox="0 0 931 908">
  <!-- Generator: Adobe Illustrator 30.0.0, SVG Export Plug-In . SVG Version: 2.1.1 Build 123)  -->
  <defs>
    <linearGradient id="linear-gradient" x1="707.65" y1="766.39" x2="914.69" y2="766.39" gradientUnits="userSpaceOnUse">
      <stop offset="0" stop-color="#fdc782"/>
      <stop offset="1" stop-color="#fb910e"/>
    </linearGradient>
    <linearGradient id="linear-gradient1" x1="26" y1="775" x2="233.97" y2="775" gradientUnits="userSpaceOnUse">
      <stop offset="0" stop-color="#fb900e"/>
      <stop offset="1" stop-color="#fdc782"/>
    </linearGradient>
  </defs>
  <path d="M566,79.99l-215.93,121.58c-6.05,5-9.27,24.15-10.75,32.25-4.32,23.59-5.11,46.85-6.36,70.64l.04,167.54-88.01-50.48-1.04-2.96.56-262.55L470.76,24.15l95.24,55.83Z" style="fill: #0d7140;"/>
  <path d="M450.59,784.06l1.41-1.55-1.69-.42c-8.58-63.04,35.41-121.16,98.42-130.01,63-8.85,121.31,34.89,130.43,97.86,9.12,62.97-34.37,121.46-97.29,130.85-62.93,9.39-121.61-33.85-131.27-96.73ZM534.35,722.35c-28.47,27.7-22.02,93.69,22.6,100.2,68.28,9.96,71.43-104.84,17.44-111.44-14.87-1.82-29.08.57-40.04,11.24Z" style="fill: #fdc782;"/>
  <path d="M700,317v102.5l-227.74,134.33c-2.45.37-9.23-4.16-11.93-5.66-25.81-14.26-50.7-30.82-75.83-46.17-.7-20.48,1.3-43.39,6.79-63.22,8.01-28.94,19.33-38.29,45.19-17.75,12,9.53,27.38,30.92,44.56,26.5,9.67-2.49,32.83-22.66,42.65-29.35,7.2-4.9,14.57-9.47,22.02-13.98,46.25-28.05,97.91-58.1,145.63-83.37,2.68-1.42,5.71-3.25,8.67-3.83Z" style="fill: #085333;"/>
  <path d="M911,855.5c-.82,2.85-24.56,13.68-28.74,15.26-86.37,32.79-181.18-13.3-174.25-113.25,6.81-98.3,125.03-135.49,198.32-80.34,2.02,1.52,9.43,6.5,8.23,8.82l-41.11,46.05-2.3-.23c-19.91-27.46-64.05-30.27-84.59-1.74-19.49,27.07-14.47,76.18,19.06,89.81,18.06,7.34,33.2,3.14,51.38-.88v-25h-36v-46h90v107.5Z" style="fill: url(#linear-gradient);"/>
  <path d="M26,655l207.97,1.03-12.97,53.97H92l1,37h121l-19,55h-101.5l-1.5,1.5v49c-18.13,12.54-36.33,25.32-55.08,36.92-3.32,2.05-7.19,5.13-10.92,5.58v-240Z" style="fill: url(#linear-gradient1);"/>
  <path d="M686,149c-33.33,21.79-63.97,47.41-97.48,69.02-27.53,17.75-57.67,32.42-84.83,50.17-6.24,4.08-14.82,9.84-19.71,15.29-17.21,19.12-5.39,32.49-2.11,53.16.98,6.19,1.39,12.75,2.02,19,.17,1.64.82,4.33-.89,5.37-23.51-4.4-47.8-9.66-69.68-19.82-7.16-3.33-14.07-5.26-17.09-12.91-4.76-12.04-8.79-53.65-4.72-65.26,1.4-3.99,4.49-6.73,7.58-9.42l223.91-139.17c2.32-.48,6.34,2.21,8.68,3.41,18.5,9.44,36.37,21.16,54.33,31.17Z" style="fill: #0d7140;"/>
  <polygon points="330 656 330 822 443 822 426.5 876 263 876 263 656 330 656" style="fill: #fdc782;"/>
  <path d="M483,361c1.71-1.03,1.06-3.73.89-5.37-.63-6.25-1.04-12.81-2.02-19-3.28-20.67-15.1-34.04,2.11-53.16,4.9-5.44,13.47-11.21,19.71-15.29,27.16-17.75,57.3-32.42,84.83-50.17,33.51-21.61,64.15-47.23,97.48-69.02.51.28,2.43.06,3.69.77,2.85,1.6,9.71,4.7,10.29,7.76l-.91,94.05c-15.82,12.28-29.78,27.18-45.6,39.4-1.54,1.19-7,5.6-8.22,5.86-5.54,1.14-26.99-18.37-35.84-18.77-4.29-.2-8.44,3.84-11.9,5.96l-93.15,78.86c-4.61,2.38-13.25.57-18.5-.3-1.29-.21-2.45-1.5-2.88-1.58Z" style="fill: #085332;"/>
  <path d="M450.59,784.06c-.1-.66-.2-1.31-.29-1.97l1.69.42-1.41,1.55Z" style="fill: #b2b3a5;"/>
</svg>