<?xml version="1.0" encoding="UTF-8"?>
<svg id="Layer_1" xmlns="http://www.w3.org/2000/svg" version="1.1" viewBox="0 0 483 553">
  <!-- Generator: Adobe Illustrator 30.0.0, SVG Export Plug-In . SVG Version: 2.1.1 Build 123)  -->
  <path d="M337,66.99l-215.93,121.58c-6.05,5-9.27,24.15-10.75,32.25-4.32,23.59-5.11,46.85-6.36,70.64l.04,167.54-88.01-50.48-1.04-2.96.56-262.55L241.76,11.15l95.24,55.83Z" style="fill: #0d7140;"/>
  <path d="M471,304v102.5l-227.74,134.33c-2.45.37-9.23-4.16-11.93-5.66-25.81-14.26-50.7-30.82-75.83-46.17-.7-20.48,1.3-43.39,6.79-63.22,8.01-28.94,19.33-38.29,45.19-17.75,12,9.53,27.38,30.92,44.56,26.5,9.67-2.49,32.83-22.66,42.65-29.35,7.2-4.9,14.57-9.47,22.02-13.98,46.25-28.05,97.91-58.1,145.63-83.37,2.68-1.42,5.71-3.25,8.67-3.83Z" style="fill: #085333;"/>
  <path d="M457,136c-33.33,21.79-63.97,47.41-97.48,69.02-27.53,17.75-57.67,32.42-84.83,50.17-6.24,4.08-14.82,9.84-19.71,15.29-17.21,19.12-5.39,32.49-2.11,53.16.98,6.19,1.39,12.75,2.02,19,.17,1.64.82,4.33-.89,5.37-23.51-4.4-47.8-9.66-69.68-19.82-7.16-3.33-14.07-5.26-17.09-12.91-4.76-12.04-8.79-53.65-4.72-65.26,1.4-3.99,4.49-6.73,7.58-9.42l223.91-139.17c2.32-.48,6.34,2.21,8.68,3.41,18.5,9.44,36.37,21.16,54.33,31.17Z" style="fill: #0d7140;"/>
  <path d="M254,348c1.71-1.03,1.06-3.73.89-5.37-.63-6.25-1.04-12.81-2.02-19-3.28-20.67-15.1-34.04,2.11-53.16,4.9-5.44,13.47-11.21,19.71-15.29,27.16-17.75,57.3-32.42,84.83-50.17,33.51-21.61,64.15-47.23,97.48-69.02.51.28,2.43.06,3.69.77,2.85,1.6,9.71,4.7,10.29,7.76l-.91,94.05c-15.82,12.28-29.78,27.18-45.6,39.4-1.54,1.19-7,5.6-8.22,5.86-5.54,1.14-26.99-18.37-35.84-18.77-4.29-.2-8.44,3.84-11.9,5.96l-93.15,78.86c-4.61,2.38-13.25.57-18.5-.3-1.29-.21-2.45-1.5-2.88-1.58Z" style="fill: #085332;"/>
  <path d="M221.59,771.06c-.1-.66-.2-1.31-.29-1.97l1.69.42-1.41,1.55Z" style="fill: #b2b3a5;"/>
</svg>