<?xml version="1.0" encoding="UTF-8"?>
<svg id="Layer_1" data-name="Layer 1" xmlns="http://www.w3.org/2000/svg" viewBox="0 0 135.2 135.2">
  <defs>
    <style>
      .cls-1 {
        fill: #ed5b29;
      }

      .cls-2 {
        fill: #282828;
      }
    </style>
  </defs>
  <path class="cls-1" d="M135.2,67.6c0,37.34-30.27,67.6-67.6,67.6S0,104.94,0,67.6,30.27,0,67.6,0s67.6,30.27,67.6,67.6ZM101.41,62.14c5.45,1.23,10.12-5.69,4.37-6.79-1.95-.37-22.9,3.95-16.38,9.28,2.34,1.92,24.1,9.4,18.83.65-.73-1.21-6.35-1.28-6.82-3.15ZM33.4,63.12c-3.59-.54-10.06,4.2-4.96,6.55,1.68.78,19.95-4.19,18.93-8.96-.82-2.65-26.36-8.29-20.02-.24,1.41,1.79,5.48.42,6.05,2.65ZM52.41,108.13h31c-.66-40.54-31.63-40.79-31,0Z"/>
  <path class="cls-2" d="M52.41,108.13c-.63-40.79,30.34-40.54,31,0h-31Z"/>
  <path class="cls-2" d="M33.4,63.12c-.56-2.23-4.64-.86-6.05-2.65-6.34-8.05,19.2-2.41,20.02.24,1.01,4.77-17.25,9.74-18.93,8.96-5.1-2.35,1.37-7.08,4.96-6.55Z"/>
  <path class="cls-2" d="M101.41,62.14c.47,1.87,6.09,1.94,6.82,3.15,5.27,8.75-16.48,1.27-18.83-.65-6.52-5.34,14.43-9.66,16.38-9.28,5.75,1.09,1.08,8.01-4.37,6.79Z"/>
</svg>