<?xml version="1.0" encoding="UTF-8"?>
<svg id="Layer_1" data-name="Layer 1" xmlns="http://www.w3.org/2000/svg" viewBox="0 0 135.21 135.21">
  <defs>
    <style>
      .cls-1 {
        fill: #ed5b29;
      }

      .cls-2 {
        fill: #282828;
      }
    </style>
  </defs>
  <path class="cls-1" d="M135.21,67.6c0,37.34-30.27,67.6-67.6,67.6S0,104.94,0,67.6,30.27,0,67.6,0s67.6,30.27,67.6,67.6ZM51.71,63.11c-.44-.76-13.42-10.2-14.3-10.21-5.65-.04-2.32,5.88.5,8.02-5.31-2.4-10.16,4.33-5.35,5.86,1.08.34,15.58,1.4,16.85,1.15,2.38-.47,3.48-2.75,2.3-4.82ZM96.92,59.95c5.65-.71,5.61-9.04-.74-6.26-.65.29-10.91,8.1-11.33,8.67-3.28,4.44.48,5.78,4.58,5.64,1.96-.07,12.62-1.17,13.48-1.57,1.52-.72,2.72-2.92,1.55-4.54-1.62-2.24-6.63.48-7.54-1.94ZM70.62,98.62c-6.02,4.98-9.45-7.17-13.67-10.22-12.52-9.06-23.14,12.48-21.03,14.53,6.75,1.55,6.18-4.34,9.6-7.89,8.44-8.78,10.49,3.98,15.17,7.91,13.04,10.94,18.22-10.84,23.71-11,6.45-.18,8.71,12.98,12.85,11.87,6.65-1.79-3.72-13.81-6.97-15.74-12.32-7.31-14.14,5.98-19.65,10.53Z"/>
  <path class="cls-2" d="M70.62,98.62c5.51-4.56,7.33-17.84,19.65-10.53,3.24,1.92,13.62,13.95,6.97,15.74-4.14,1.11-6.4-12.05-12.85-11.87-5.49.15-10.67,21.94-23.71,11-4.68-3.93-6.72-16.69-15.17-7.91-3.41,3.55-2.85,9.45-9.6,7.89-2.1-2.06,8.51-23.59,21.03-14.53,4.22,3.05,7.64,15.2,13.67,10.22Z"/>
  <path class="cls-2" d="M51.71,63.11c1.18,2.07.08,4.36-2.3,4.82-1.28.25-15.77-.8-16.85-1.15-4.81-1.53.05-8.26,5.35-5.86-2.81-2.14-6.15-8.06-.5-8.02.88,0,13.86,9.45,14.3,10.21Z"/>
  <path class="cls-2" d="M96.92,59.95c.91,2.42,5.92-.3,7.54,1.94,1.17,1.62-.03,3.82-1.55,4.54-.86.41-11.53,1.51-13.48,1.57-4.1.14-7.86-1.2-4.58-5.64.42-.57,10.68-8.39,11.33-8.67,6.35-2.78,6.4,5.55.74,6.26Z"/>
</svg>