<?xml version="1.0" encoding="UTF-8"?>
<svg id="Layer_1" data-name="Layer 1" xmlns="http://www.w3.org/2000/svg" viewBox="0 0 135.16 135.16">
  <defs>
    <style>
      .cls-1 {
        fill: #28b684;
      }

      .cls-2 {
        fill: #282828;
      }
    </style>
  </defs>
  <path class="cls-1" d="M135.16,67.58c0,37.32-30.26,67.58-67.58,67.58S0,104.9,0,67.58,30.26,0,67.58,0s67.58,30.26,67.58,67.58ZM46.93,61.72c0-3.66-2.97-6.63-6.63-6.63s-6.63,2.97-6.63,6.63,2.97,6.63,6.63,6.63,6.63-2.97,6.63-6.63ZM101.34,61.69c0-3.56-2.89-6.45-6.45-6.45s-6.45,2.89-6.45,6.45,2.89,6.45,6.45,6.45,6.45-2.89,6.45-6.45ZM89.88,100.1c-4.78-.29-8.12,3.42-12.79,4.7-4.21,1.15-14-.02-12.12,5.69,1.31,3.97,15.87-.5,18.91-1.9,3.97-1.83,7.04-3.55,6-8.49Z"/>
  <path class="cls-2" d="M89.88,100.1c1.04,4.94-2.02,6.67-6,8.49-3.04,1.4-17.6,5.87-18.91,1.9-1.89-5.71,7.91-4.54,12.12-5.69,4.68-1.28,8.01-4.98,12.79-4.7Z"/>
  <circle class="cls-2" cx="40.3" cy="61.72" r="6.63"/>
  <circle class="cls-2" cx="94.89" cy="61.69" r="6.45"/>
</svg>