<?xml version="1.0" encoding="UTF-8"?>
<svg id="Layer_1" data-name="Layer 1" xmlns="http://www.w3.org/2000/svg" viewBox="0 0 135.19 135.19">
  <defs>
    <style>
      .cls-1 {
        fill: #282828;
      }

      .cls-2 {
        fill: #faaa36;
      }
    </style>
  </defs>
  <path class="cls-2" d="M135.19,67.59c0,37.33-30.26,67.59-67.59,67.59S0,104.92,0,67.59,30.26,0,67.59,0s67.59,30.26,67.59,67.59ZM46.93,62.25c0-3.59-2.91-6.51-6.51-6.51s-6.51,2.91-6.51,6.51,2.91,6.51,6.51,6.51,6.51-2.91,6.51-6.51ZM101.61,62.28c0-3.64-2.95-6.59-6.59-6.59s-6.59,2.95-6.59,6.59,2.95,6.59,6.59,6.59,6.59-2.95,6.59-6.59ZM50.09,99.03c1.95,2.66,9.03-2.89,11.86-3.47s6.78-.81,9.58-.46c4.1.51,14.29,9.06,13.51,1.56-.66-6.37-16.53-8.09-21.54-7.54-3.25.36-16.91,5.16-13.42,9.92Z"/>
  <path class="cls-1" d="M50.09,99.03c-3.49-4.76,10.17-9.56,13.42-9.92,5.02-.55,20.89,1.17,21.54,7.54.77,7.5-9.41-1.05-13.51-1.56-2.8-.35-6.79-.11-9.58.46s-9.91,6.14-11.86,3.47Z"/>
  <circle class="cls-1" cx="95.03" cy="62.28" r="6.59"/>
  <circle class="cls-1" cx="40.42" cy="62.25" r="6.51"/>
</svg>