<?xml version="1.0" encoding="UTF-8"?>
<svg id="Layer_1" data-name="Layer 1" xmlns="http://www.w3.org/2000/svg" viewBox="0 0 135.18 135.18">
  <defs>
    <style>
      .cls-1 {
        fill: #282828;
      }

      .cls-2 {
        fill: #faaa36;
      }
    </style>
  </defs>
  <path class="cls-2" d="M135.18,67.59c0,37.33-30.26,67.59-67.59,67.59S0,104.92,0,67.59,30.26,0,67.59,0s67.59,30.26,67.59,67.59ZM34.76,35.21c-2.29.74-2.09,3.68-.61,5.42.87,1.02,14.63,10.46,15.57,10.51,5.12.31,3.63-3.28.89-5.98-1.26-1.24-11.32-8.96-12.51-9.5s-2.1-.85-3.35-.45ZM97.88,35.33c-1.31.34-14.02,9.99-14.79,11.25-2.39,3.9.4,5.37,4.01,4.02,1.32-.49,13.42-9.81,14.09-10.92,1.93-3.21.45-5.32-3.31-4.35ZM46.88,61.79c0-3.62-2.93-6.56-6.56-6.56s-6.56,2.93-6.56,6.56,2.93,6.56,6.56,6.56,6.56-2.93,6.56-6.56ZM101.38,61.77c0-3.65-2.96-6.61-6.61-6.61s-6.61,2.96-6.61,6.61,2.96,6.61,6.61,6.61,6.61-2.96,6.61-6.61ZM90.14,100.13c-1.15-1.18-19.32,4.35-22.01,5.5-3.19,1.37-6.18,5.11-1.29,6.35,1.15.29,21.39-5.8,22.7-6.74s.34-3.73.6-5.12Z"/>
  <path class="cls-1" d="M90.14,100.13c-.26,1.39.77,4.14-.6,5.12s-21.55,7.03-22.7,6.74c-4.88-1.24-1.9-4.98,1.29-6.35,2.68-1.15,20.85-6.68,22.01-5.5Z"/>
  <circle class="cls-1" cx="94.77" cy="61.77" r="6.61"/>
  <circle class="cls-1" cx="40.33" cy="61.79" r="6.56"/>
  <path class="cls-1" d="M34.76,35.21c1.24-.4,2.22-.06,3.35.45,1.19.54,11.24,8.26,12.51,9.5,2.74,2.7,4.23,6.29-.89,5.98-.94-.06-14.7-9.49-15.57-10.51-1.48-1.73-1.68-4.68.61-5.42Z"/>
  <path class="cls-1" d="M97.88,35.33c3.76-.96,5.24,1.14,3.31,4.35-.67,1.11-12.77,10.43-14.09,10.92-3.61,1.35-6.4-.12-4.01-4.02.77-1.26,13.48-10.91,14.79-11.25Z"/>
</svg>