<?xml version="1.0" encoding="UTF-8"?>
<svg id="Layer_1" data-name="Layer 1" xmlns="http://www.w3.org/2000/svg" viewBox="0 0 135.21 135.21">
  <defs>
    <style>
      .cls-1 {
        fill: #28b684;
      }

      .cls-2 {
        fill: #282828;
      }
    </style>
  </defs>
  <path class="cls-1" d="M135.21,67.6c0,37.34-30.27,67.6-67.6,67.6S0,104.94,0,67.6,30.27,0,67.6,0s67.6,30.27,67.6,67.6ZM46.69,61.75c0-3.58-2.91-6.49-6.49-6.49s-6.49,2.91-6.49,6.49,2.91,6.49,6.49,6.49,6.49-2.91,6.49-6.49ZM101.48,61.79c0-3.62-2.93-6.56-6.56-6.56s-6.56,2.93-6.56,6.56,2.93,6.56,6.56,6.56,6.56-2.93,6.56-6.56ZM52.79,91.15l-2.42,3.36c.09.53,2.24,2.64,2.42,2.64h30c1.99,0,1.98-6,0-6h-30Z"/>
  <path class="cls-2" d="M52.79,91.15h30c1.98,0,1.99,6,0,6h-30c-.18,0-2.32-2.11-2.42-2.64l2.42-3.36Z"/>
  <circle class="cls-2" cx="94.92" cy="61.79" r="6.56"/>
  <circle class="cls-2" cx="40.2" cy="61.75" r="6.49"/>
</svg>