<?xml version="1.0" encoding="UTF-8"?>
<svg id="Layer_1" data-name="Layer 1" xmlns="http://www.w3.org/2000/svg" viewBox="0 0 135.13 135.13">
  <defs>
    <style>
      .cls-1 {
        fill: #28b684;
      }

      .cls-2 {
        fill: #282828;
      }
    </style>
  </defs>
  <path class="cls-1" d="M135.13,67.57c0,37.32-30.25,67.57-67.57,67.57S0,104.88,0,67.57,30.25,0,67.57,0s67.57,30.25,67.57,67.57ZM46.86,61.61c0-3.64-2.95-6.59-6.59-6.59s-6.59,2.95-6.59,6.59,2.95,6.59,6.59,6.59,6.59-2.95,6.59-6.59ZM101.44,61.76c0-3.61-2.93-6.54-6.54-6.54s-6.54,2.93-6.54,6.54,2.93,6.54,6.54,6.54,6.54-2.93,6.54-6.54ZM40.84,99.17c-1.51,2.2,1.08,6.22,4.25,4.84l51.66-10.41c1.71-1.28,1.47-4.78-.66-5.42-6.44,2.11-53.67,8.67-55.26,11Z"/>
  <path class="cls-2" d="M40.84,99.17c1.59-2.33,48.82-8.89,55.26-11,2.13.65,2.37,4.14.66,5.42l-51.66,10.41c-3.18,1.38-5.76-2.64-4.25-4.84Z"/>
  <circle class="cls-2" cx="40.27" cy="61.61" r="6.59"/>
  <circle class="cls-2" cx="94.91" cy="61.76" r="6.54"/>
</svg>