<?xml version="1.0" encoding="UTF-8"?>
<svg id="Layer_1" data-name="Layer 1" xmlns="http://www.w3.org/2000/svg" viewBox="0 0 135.17 135.17">
  <defs>
    <style>
      .cls-1 {
        fill: #ed5b29;
      }

      .cls-2 {
        fill: #282828;
      }
    </style>
  </defs>
  <path class="cls-1" d="M135.17,68.58c0,37.33-30.26,67.58-67.58,67.58S0,105.91,0,68.58,30.26,1,67.58,1s67.58,30.26,67.58,67.58ZM32,70.09c-3.92,2.57,3.16,7.59,5.69,8.35,15.5,4.67,25.63-18.39,11.59-25.58-12.04-6.16-22.9,6.27-14.54,17.03-.84.06-2.08-.23-2.74.2ZM99.42,75.58c6.25-5.24,5.96-18.06-1.34-22.53-12.08-7.41-25.07,8.36-13.37,17.36-8.3-1.22-5.69,5.38.47,7.53,4.43,1.55,10.6.69,14.24-2.36ZM74.76,96.89c-4.35-10.23-13.31-8.4-18.62-.04-4.3-1.36-3.87-6.15-8.98-6.91-4.76-.71-14.21,2.45-8.82,7.91,9.21-4.15,7.48-.59,12.89,3.04,8.69,5.84,11.91-6.14,15.88-4.94,1.81.55,3.12,6.95,8.98,6.64,6.04-.31,7.04-5.91,9.35-6.59,3.91-1.15,6.45,5.19,9.38,1.43,3.45-4.43-7.01-9.34-12.07-7.02-1.91.88-4.44,5.16-6.54,6.46l-1.45.02Z"/>
  <path class="cls-2" d="M31.86,69.67c.66-.43,1.9-.13,2.74-.2-8.36-10.76,2.5-23.2,14.54-17.03,14.04,7.19,3.91,30.26-11.59,25.58-2.54-.76-9.62-5.78-5.69-8.35ZM36.61,71.47c14.38,6.26,19.77-15.65,4-14.98.72,2.08,3.7.77,5.44,3.04,2.27,2.95,1.19,7.95-2.06,9.84l-7.38,2.1Z"/>
  <path class="cls-2" d="M99.29,75.16c-3.64,3.05-9.81,3.91-14.24,2.36-6.16-2.15-8.77-8.76-.47-7.53-11.7-9,1.29-24.77,13.37-17.36,7.3,4.47,7.59,17.29,1.34,22.53ZM85.61,70.49c.69,2.35,3.54,2.17,5.49,2.04,10.95-.74,9.33-19.35-2.5-15.55,11.58,2.35,7.45,14.65-2.99,13.51Z"/>
  <path class="cls-2" d="M74.62,96.47l1.45-.02c2.1-1.29,4.63-5.58,6.54-6.46,5.06-2.32,15.52,2.59,12.07,7.02-2.93,3.76-5.48-2.57-9.38-1.43-2.31.68-3.31,6.27-9.35,6.59-5.86.3-7.17-6.1-8.98-6.64-3.97-1.2-7.19,10.78-15.88,4.94-5.41-3.63-3.68-7.2-12.89-3.04-5.39-5.47,4.05-8.62,8.82-7.91,5.11.76,4.67,5.55,8.98,6.91,5.31-8.37,14.28-10.19,18.62.04Z"/>
  <path class="cls-1" d="M36.61,71.47l7.38-2.1c3.25-1.88,4.33-6.89,2.06-9.84-1.75-2.27-4.73-.97-5.44-3.04,15.77-.68,10.39,21.24-4,14.98Z"/>
  <path class="cls-1" d="M85.61,70.49c10.44,1.14,14.57-11.16,2.99-13.51,11.82-3.8,13.45,14.81,2.5,15.55-1.95.13-4.79.31-5.49-2.04Z"/>
</svg>