<?xml version="1.0" encoding="UTF-8"?>
<svg id="Layer_1" data-name="Layer 1" xmlns="http://www.w3.org/2000/svg" viewBox="0 0 135.17 135.17">
  <defs>
    <style>
      .cls-1 {
        fill: #28b684;
      }

      .cls-2 {
        fill: #ed5b29;
      }

      .cls-3 {
        fill: #282828;
      }

      .cls-4 {
        fill: #fefefe;
      }
    </style>
  </defs>
  <path class="cls-1" d="M135.17,67.58c0,37.33-30.26,67.58-67.58,67.58S0,104.91,0,67.58,30.26,0,67.58,0s67.58,30.26,67.58,67.58ZM33.53,63.98c3.15,4.92,6.02-6.25,11.52-6.56,6.36-.35,6.22,7.17,8.97,7.64,6.45-1.65,1.79-9.77-2.25-11.81-3.73-1.89-9.74-1.82-13.32.42-2.55,1.59-6.79,7.39-4.92,10.31ZM101.4,64.12c1.45-15.78-21.69-16.26-23.95-1.58,6.51,5.39,5.08-5.28,13.46-4.51,6.77.62,3.18,8.12,10.49,6.09ZM52.4,82.12c.26,7.65,1.83,12.69,6,19,2.08,3.15,3.73,6.64,8.56,6.96,5.8.38,7.01-3.52,9.44-6.96,5.6-7.94,4.98-9.61,6-19,.13-1.23,1.67-3.14,1-5l-30.42-.02c-1.03.16-.62,3.82-.58,5.02Z"/>
  <path class="cls-3" d="M82.4,82.12c-1.02,9.39-.4,11.06-6,19-6.05-2.19-12.03-3.27-18,0-4.17-6.31-5.74-11.35-6-19h30Z"/>
  <path class="cls-3" d="M33.53,63.98c-1.87-2.93,2.37-8.72,4.92-10.31,3.58-2.24,9.59-2.31,13.32-.42,4.03,2.05,8.7,10.17,2.25,11.81-2.74-.47-2.61-7.99-8.97-7.64-5.5.31-8.37,11.48-11.52,6.56Z"/>
  <path class="cls-3" d="M101.4,64.12c-7.31,2.03-3.72-5.47-10.49-6.09-8.38-.77-6.95,9.9-13.46,4.51,2.26-14.69,25.4-14.2,23.95,1.58Z"/>
  <path class="cls-4" d="M52.4,82.12c-.04-1.2-.45-4.86.58-5.02l30.42.02c.67,1.85-.87,3.76-1,5h-30Z"/>
  <path class="cls-2" d="M76.4,101.12c-2.43,3.44-3.64,7.35-9.44,6.96-4.83-.32-6.48-3.82-8.56-6.96,5.97-3.27,11.95-2.19,18,0Z"/>
</svg>