<?xml version="1.0" encoding="UTF-8"?>
<svg id="Layer_1" data-name="Layer 1" xmlns="http://www.w3.org/2000/svg" viewBox="0 0 135.1 135.1">
  <defs>
    <style>
      .cls-1 {
        fill: #282828;
      }

      .cls-2 {
        fill: #faaa36;
      }
    </style>
  </defs>
  <path class="cls-2" d="M135.1,67.55c0,37.31-30.24,67.55-67.55,67.55S0,104.86,0,67.55,30.24,0,67.55,0s67.55,30.24,67.55,67.55ZM46.81,61.72c0-3.66-2.97-6.63-6.63-6.63s-6.63,2.97-6.63,6.63,2.97,6.63,6.63,6.63,6.63-2.97,6.63-6.63ZM101.51,61.79c0-3.66-2.97-6.63-6.63-6.63s-6.63,2.97-6.63,6.63,2.97,6.63,6.63,6.63,6.63-2.97,6.63-6.63ZM64.2,75.32c-14.26,3.29-12.92,35.36,3.71,34.73,18.28-.69,16.78-39.45-3.71-34.73Z"/>
  <path class="cls-1" d="M64.2,75.32c20.48-4.72,21.98,34.04,3.71,34.73-16.63.63-17.97-31.44-3.71-34.73Z"/>
  <circle class="cls-1" cx="94.88" cy="61.79" r="6.63"/>
  <circle class="cls-1" cx="40.18" cy="61.72" r="6.63"/>
</svg>