<?xml version="1.0" encoding="UTF-8"?>
<svg id="Layer_1" data-name="Layer 1" xmlns="http://www.w3.org/2000/svg" viewBox="0 0 135.2 135.2">
  <defs>
    <style>
      .cls-1 {
        fill: #ed5b29;
      }

      .cls-2 {
        fill: #282828;
      }
    </style>
  </defs>
  <path class="cls-1" d="M135.2,67.6c0,37.34-30.27,67.6-67.6,67.6S0,104.94,0,67.6,30.27,0,67.6,0s67.6,30.27,67.6,67.6ZM52.21,56.85c.16-.12.97-2.72.87-3.27-.23-1.31-14.65-12.49-16.36-12.67-3.02-.31-4.56,2.53-3.24,4.84.8,1.39,16.83,12.47,18.72,11.1ZM82.49,52.1c-1.52,2.68.62,5.66,4.09,4.65,2.03-.59,16.43-11.77,15.7-14.3-.9-1.36-1.8-1.7-3.43-1.55-.99.1-15.87,10.33-16.36,11.19ZM46.75,61.76c0-3.62-2.93-6.55-6.55-6.55s-6.55,2.93-6.55,6.55,2.93,6.55,6.55,6.55,6.55-2.93,6.55-6.55ZM101.51,61.73c0-3.62-2.93-6.56-6.56-6.56s-6.56,2.93-6.56,6.56,2.93,6.56,6.56,6.56,6.56-2.93,6.56-6.56ZM49.63,102.27c11.74-12.37,27.44-8.78,37.66,3.15,1.97,2.3,2.08,6.82,6.38,5.42s-1.06-8.3-2.56-10.24c-9.27-12.05-26.06-15.66-39.16-7.51-3.7,2.3-14.19,12.23-11.2,16.88,2.81,4.36,7.77-6.52,8.88-7.7Z"/>
  <path class="cls-2" d="M49.5,102.85c-1.11,1.17-6.08,12.06-8.88,7.7-2.99-4.65,7.5-14.57,11.2-16.88,13.11-8.16,29.9-4.55,39.16,7.51,1.5,1.95,6.87,8.84,2.56,10.24s-4.41-3.12-6.38-5.42c-10.21-11.94-25.92-15.53-37.66-3.15Z"/>
  <circle class="cls-2" cx="94.82" cy="62.32" r="6.56"/>
  <circle class="cls-2" cx="40.07" cy="62.35" r="6.55"/>
  <path class="cls-2" d="M52.08,57.43c-1.89,1.37-17.92-9.71-18.72-11.1-1.33-2.31.22-5.15,3.24-4.84,1.71.17,16.12,11.35,16.36,12.67.1.55-.71,3.16-.87,3.27Z"/>
  <path class="cls-2" d="M82.36,52.68c.49-.86,15.38-11.1,16.36-11.19,1.62-.16,2.52.18,3.43,1.55.73,2.52-13.67,13.71-15.7,14.3-3.47,1-5.61-1.97-4.09-4.65Z"/>
</svg>